<svg version="1.1" viewBox="0 0 24 24" xmlns="http://www.w3.org/2000/svg">
 <path d="m12-4.9706 16.971 16.971-16.971 16.971-16.971-16.971z" fill="none"/>
 <path d="m7.7574 20.485 1.4142 1.4142 1.4142-1.4142-1.4142-1.4142zm11.314-5.6569 1.4142 1.4142 1.4142-1.4142-1.4142-1.4142zm-8.4853-14.142-9.8995 9.8995c-0.77782 0.77782-0.77782 2.0506 0 2.8284l2.8284 2.8284 1.4142-1.4142-2.8284-2.8284 9.8995-9.8995 2.8284 2.8284 1.4142-1.4142-2.8284-2.8284c-0.77782-0.77782-2.0506-0.77782-2.8284 0zm12.728 9.8995-1.4142 1.4142 1.4142 1.4142c0.77782-0.77782 0.77782-2.0506 0-2.8284zm-19.799 8.4853 1.4142 1.4142 15.556-15.556-1.4142-1.4142zm9.8995 1.4142 1.4142 1.4142 1.4142-1.4142-1.4142-1.4142zm5.6569-11.314 1.4142 1.4142 1.4142-1.4142-1.4142-1.4142zm-2.8284 8.4853 1.4142 1.4142 1.4142-1.4142-1.4142-1.4142zm-5.6569 5.6569c0.77782 0.77782 2.0506 0.77782 2.8284 0l-1.4142-1.4142z"/>
</svg>
